ffprobe version n2.6.1 Copyright (c) 2007-2015 the FFmpeg developers
  built with gcc 4.8 (Ubuntu 4.8.2-19ubuntu1)
  configuration: --prefix=/opt/ffmpeg --extra-cflags=-I/opt/ffmpeg/include --extra-ldflags=-L/opt/ffmpeg/lib --extra-libs=-ldl --enable-gpl --enable-libass --enable-libfdk-aac --enable-libfreetype --enable-libmp3lame --enable-libtheora --enable-libvorbis --enable-libvpx --enable-libx264 --enable-libx265 --enable-nonfree
  libavutil      54. 20.100 / 54. 20.100
  libavcodec     56. 26.100 / 56. 26.100
  libavformat    56. 25.101 / 56. 25.101
  libavdevice    56.  4.100 / 56.  4.100
  libavfilter     5. 11.102 /  5. 11.102
  libswscale      3.  1.101 /  3.  1.101
  libswresample   1.  1.100 /  1.  1.100
  libpostproc    53.  3.100 / 53.  3.100
[theora @ 0x28ae720] Reducing offset_x from 6 to 0chroma samples to preserve alignment.
[theora @ 0x28ae720] 7 bits left in packet 82
[ogg @ 0x28adc60] Broken file, keyframe not correctly marked.
Input #0, ogg, from 'ed_hd.ogv':
  Duration: 00:10:53.79, start: 0.000000, bitrate: 558 kb/s
    Stream #0:0: Video: theora, yuv420p, 532x300, 24 fps, 24 tbr, 24 tbn, 24 tbc
    Stream #0:1: Audio: vorbis, 44100 Hz, stereo, fltp
    Metadata:
      TITLE           : Elephants Dream
      ARTIST          : Bassam Kurdali
      LICENSE         : http://creativecommons.org/licenses/by/3.0/us/
      DATE            : 2006
      ORGANIZATION    : Orange Open Movie Project Studio
      LOCATION        : http://www.archive.org/details/ElephantsDream
[theora @ 0x28b5980] Reducing offset_x from 6 to 0chroma samples to preserve alignment.
[theora @ 0x28b5980] 7 bits left in packet 82
